<mxfile host="app.diagrams.net" agent="Mozilla/5.0 (Windows NT 10.0; Win64; x64) AppleWebKit/537.36 (KHTML, like Gecko) Chrome/131.0.0.0 Safari/537.36" version="26.0.5">
  <diagram name="‫עמוד-1‬" id="sUzNPQEEkAw4JwKCN1K-">
    <mxGraphModel dx="1014" dy="1915" grid="1" gridSize="10" guides="1" tooltips="1" connect="1" arrows="1" fold="1" page="1" pageScale="1" pageWidth="827" pageHeight="1169" math="0" shadow="0">
      <root>
        <mxCell id="0" />
        <mxCell id="1" parent="0" />
        <mxCell id="lmKd-iWOiShviezDQh_1-94" value="" style="edgeStyle=orthogonalEdgeStyle;rounded=0;orthogonalLoop=1;jettySize=auto;html=1;" parent="1" source="lmKd-iWOiShviezDQh_1-95" target="lmKd-iWOiShviezDQh_1-97" edge="1">
          <mxGeometry relative="1" as="geometry" />
        </mxCell>
        <mxCell id="lmKd-iWOiShviezDQh_1-95" value="מקור תצ&quot;אות" style="shape=umlActor;verticalLabelPosition=bottom;verticalAlign=top;html=1;outlineConnect=0;" parent="1" vertex="1">
          <mxGeometry x="1050" y="126.25" width="30" height="60" as="geometry" />
        </mxCell>
        <mxCell id="lmKd-iWOiShviezDQh_1-96" value="" style="edgeStyle=orthogonalEdgeStyle;rounded=0;orthogonalLoop=1;jettySize=auto;html=1;" parent="1" source="lmKd-iWOiShviezDQh_1-97" target="lmKd-iWOiShviezDQh_1-99" edge="1">
          <mxGeometry relative="1" as="geometry" />
        </mxCell>
        <mxCell id="lmKd-iWOiShviezDQh_1-97" value="זיכרון לוקלי" style="whiteSpace=wrap;html=1;verticalAlign=top;" parent="1" vertex="1">
          <mxGeometry x="1100" y="125.75" width="120" height="60" as="geometry" />
        </mxCell>
        <mxCell id="lmKd-iWOiShviezDQh_1-98" value="" style="edgeStyle=orthogonalEdgeStyle;rounded=0;orthogonalLoop=1;jettySize=auto;html=1;entryX=0;entryY=0.5;entryDx=0;entryDy=0;entryPerimeter=0;" parent="1" source="lmKd-iWOiShviezDQh_1-99" target="lmKd-iWOiShviezDQh_1-136" edge="1">
          <mxGeometry relative="1" as="geometry">
            <mxPoint x="1444" y="160" as="targetPoint" />
          </mxGeometry>
        </mxCell>
        <mxCell id="lmKd-iWOiShviezDQh_1-201" style="edgeStyle=orthogonalEdgeStyle;rounded=0;orthogonalLoop=1;jettySize=auto;html=1;" parent="1" source="lmKd-iWOiShviezDQh_1-99" target="lmKd-iWOiShviezDQh_1-117" edge="1">
          <mxGeometry relative="1" as="geometry">
            <Array as="points">
              <mxPoint x="1360" y="156" />
              <mxPoint x="1360" y="330" />
            </Array>
          </mxGeometry>
        </mxCell>
        <mxCell id="lmKd-iWOiShviezDQh_1-99" value="לוקלי - עיבוד מקדים: המרת תמונות + חיתוך לגודל קבוע" style="whiteSpace=wrap;html=1;verticalAlign=top;" parent="1" vertex="1">
          <mxGeometry x="1260" y="112" width="70" height="87.5" as="geometry" />
        </mxCell>
        <mxCell id="lmKd-iWOiShviezDQh_1-100" value="images" style="edgeStyle=orthogonalEdgeStyle;rounded=0;orthogonalLoop=1;jettySize=auto;html=1;exitX=1;exitY=0.5;exitDx=0;exitDy=0;exitPerimeter=0;" parent="1" source="lmKd-iWOiShviezDQh_1-136" edge="1">
          <mxGeometry relative="1" as="geometry">
            <mxPoint x="1494" y="160" as="sourcePoint" />
            <Array as="points">
              <mxPoint x="1529" y="157" />
              <mxPoint x="1529" y="160" />
            </Array>
            <mxPoint x="1550" y="160" as="targetPoint" />
          </mxGeometry>
        </mxCell>
        <mxCell id="lmKd-iWOiShviezDQh_1-104" value="" style="edgeStyle=orthogonalEdgeStyle;rounded=0;orthogonalLoop=1;jettySize=auto;html=1;" parent="1" source="lmKd-iWOiShviezDQh_1-105" edge="1">
          <mxGeometry relative="1" as="geometry">
            <mxPoint x="1851.25" y="160" as="targetPoint" />
          </mxGeometry>
        </mxCell>
        <mxCell id="lmKd-iWOiShviezDQh_1-106" style="edgeStyle=orthogonalEdgeStyle;rounded=0;orthogonalLoop=1;jettySize=auto;html=1;" parent="1" edge="1">
          <mxGeometry relative="1" as="geometry">
            <mxPoint x="1910.5300000000002" y="58.25" as="targetPoint" />
            <mxPoint x="1909.98" y="118.25" as="sourcePoint" />
          </mxGeometry>
        </mxCell>
        <mxCell id="lmKd-iWOiShviezDQh_1-108" value="צרכן/אפליקציה" style="shape=umlActor;verticalLabelPosition=bottom;verticalAlign=top;html=1;outlineConnect=0;" parent="1" vertex="1">
          <mxGeometry x="2001.25" y="130" width="30" height="60" as="geometry" />
        </mxCell>
        <mxCell id="lmKd-iWOiShviezDQh_1-109" style="edgeStyle=orthogonalEdgeStyle;rounded=0;orthogonalLoop=1;jettySize=auto;html=1;entryX=0.5;entryY=0.5;entryDx=0;entryDy=0;entryPerimeter=0;" parent="1" target="lmKd-iWOiShviezDQh_1-108" edge="1">
          <mxGeometry relative="1" as="geometry">
            <mxPoint x="1957.5" y="160" as="sourcePoint" />
          </mxGeometry>
        </mxCell>
        <mxCell id="lmKd-iWOiShviezDQh_1-110" value="&lt;span style=&quot;background-color: transparent; color: light-dark(rgb(0, 0, 0), rgb(255, 255, 255));&quot;&gt;&amp;nbsp;&lt;/span&gt;&lt;span style=&quot;background-color: transparent; color: light-dark(rgb(0, 0, 0), rgb(255, 255, 255));&quot;&gt;postgresql&lt;/span&gt;" style="strokeWidth=2;html=1;shape=mxgraph.flowchart.database;whiteSpace=wrap;" parent="1" vertex="1">
          <mxGeometry x="1751.25" y="380" width="115" height="120" as="geometry" />
        </mxCell>
        <mxCell id="lmKd-iWOiShviezDQh_1-113" value="" style="endArrow=classic;html=1;rounded=0;exitX=0.813;exitY=1.015;exitDx=0;exitDy=0;exitPerimeter=0;" parent="1" source="lmKd-iWOiShviezDQh_1-139" target="lmKd-iWOiShviezDQh_1-110" edge="1">
          <mxGeometry width="50" height="50" relative="1" as="geometry">
            <mxPoint x="1781.25" y="210" as="sourcePoint" />
            <mxPoint x="1631.25" y="340" as="targetPoint" />
          </mxGeometry>
        </mxCell>
        <mxCell id="lmKd-iWOiShviezDQh_1-114" value="Logs and monitoring" style="text;html=1;align=center;verticalAlign=middle;whiteSpace=wrap;rounded=0;rotation=-45;" parent="1" vertex="1">
          <mxGeometry x="1473.5" y="260" width="106.5" height="20" as="geometry" />
        </mxCell>
        <mxCell id="lmKd-iWOiShviezDQh_1-115" style="edgeStyle=orthogonalEdgeStyle;rounded=0;orthogonalLoop=1;jettySize=auto;html=1;" parent="1" source="lmKd-iWOiShviezDQh_1-117" target="lmKd-iWOiShviezDQh_1-121" edge="1">
          <mxGeometry relative="1" as="geometry" />
        </mxCell>
        <mxCell id="lmKd-iWOiShviezDQh_1-116" style="edgeStyle=orthogonalEdgeStyle;rounded=0;orthogonalLoop=1;jettySize=auto;html=1;" parent="1" source="lmKd-iWOiShviezDQh_1-117" target="lmKd-iWOiShviezDQh_1-123" edge="1">
          <mxGeometry relative="1" as="geometry" />
        </mxCell>
        <mxCell id="lmKd-iWOiShviezDQh_1-117" value="" style="sketch=0;points=[[0,0,0],[0.25,0,0],[0.5,0,0],[0.75,0,0],[1,0,0],[0,1,0],[0.25,1,0],[0.5,1,0],[0.75,1,0],[1,1,0],[0,0.25,0],[0,0.5,0],[0,0.75,0],[1,0.25,0],[1,0.5,0],[1,0.75,0]];points=[[0,0,0],[0.25,0,0],[0.5,0,0],[0.75,0,0],[1,0,0],[0,1,0],[0.25,1,0],[0.5,1,0],[0.75,1,0],[1,1,0],[0,0.25,0],[0,0.5,0],[0,0.75,0],[1,0.25,0],[1,0.5,0],[1,0.75,0]];outlineConnect=0;fontColor=#232F3E;fillColor=#E7157B;strokeColor=#ffffff;dashed=0;verticalLabelPosition=bottom;verticalAlign=top;align=center;html=1;fontSize=12;fontStyle=0;aspect=fixed;shape=mxgraph.aws4.resourceIcon;resIcon=mxgraph.aws4.cloudwatch_2;" parent="1" vertex="1">
          <mxGeometry x="1442" y="320" width="78" height="78" as="geometry" />
        </mxCell>
        <mxCell id="lmKd-iWOiShviezDQh_1-121" value="" style="sketch=0;outlineConnect=0;fontColor=#232F3E;gradientColor=none;fillColor=#8C4FFF;strokeColor=none;dashed=0;verticalLabelPosition=bottom;verticalAlign=top;align=center;html=1;fontSize=12;fontStyle=0;aspect=fixed;pointerEvents=1;shape=mxgraph.aws4.opensearch_dashboards;" parent="1" vertex="1">
          <mxGeometry x="1272" y="329.5" width="78" height="59" as="geometry" />
        </mxCell>
        <mxCell id="lmKd-iWOiShviezDQh_1-122" value="התראות" style="edgeStyle=orthogonalEdgeStyle;rounded=0;orthogonalLoop=1;jettySize=auto;html=1;" parent="1" source="lmKd-iWOiShviezDQh_1-123" target="lmKd-iWOiShviezDQh_1-95" edge="1">
          <mxGeometry relative="1" as="geometry" />
        </mxCell>
        <mxCell id="lmKd-iWOiShviezDQh_1-123" value="Amazon SNS" style="sketch=0;outlineConnect=0;fontColor=#232F3E;gradientColor=none;strokeColor=#ffffff;fillColor=#232F3E;dashed=0;verticalLabelPosition=middle;verticalAlign=bottom;align=center;html=1;whiteSpace=wrap;fontSize=10;fontStyle=1;spacing=3;shape=mxgraph.aws4.productIcon;prIcon=mxgraph.aws4.sns;" parent="1" vertex="1">
          <mxGeometry x="1453.5" y="440" width="55" height="70" as="geometry" />
        </mxCell>
        <mxCell id="lmKd-iWOiShviezDQh_1-124" value="Amazon SNS" style="sketch=0;outlineConnect=0;fontColor=#232F3E;gradientColor=none;strokeColor=#ffffff;fillColor=#232F3E;dashed=0;verticalLabelPosition=middle;verticalAlign=bottom;align=center;html=1;whiteSpace=wrap;fontSize=10;fontStyle=1;spacing=3;shape=mxgraph.aws4.productIcon;prIcon=mxgraph.aws4.sns;" parent="1" vertex="1">
          <mxGeometry x="1883" y="-20" width="55" height="70" as="geometry" />
        </mxCell>
        <mxCell id="lmKd-iWOiShviezDQh_1-125" value="הודעה שהתוצרים זמינים" style="edgeStyle=orthogonalEdgeStyle;rounded=0;orthogonalLoop=1;jettySize=auto;html=1;entryX=0.5;entryY=0;entryDx=0;entryDy=0;entryPerimeter=0;" parent="1" source="lmKd-iWOiShviezDQh_1-124" target="lmKd-iWOiShviezDQh_1-95" edge="1">
          <mxGeometry relative="1" as="geometry">
            <Array as="points">
              <mxPoint x="1075" y="20" />
            </Array>
          </mxGeometry>
        </mxCell>
        <mxCell id="lmKd-iWOiShviezDQh_1-126" value="הודעה שהתוצרים זמינים" style="edgeStyle=orthogonalEdgeStyle;rounded=0;orthogonalLoop=1;jettySize=auto;html=1;entryX=0.5;entryY=0;entryDx=0;entryDy=0;entryPerimeter=0;" parent="1" source="lmKd-iWOiShviezDQh_1-124" target="lmKd-iWOiShviezDQh_1-108" edge="1">
          <mxGeometry relative="1" as="geometry" />
        </mxCell>
        <mxCell id="lmKd-iWOiShviezDQh_1-128" style="edgeStyle=orthogonalEdgeStyle;rounded=0;orthogonalLoop=1;jettySize=auto;html=1;entryX=0.5;entryY=0;entryDx=0;entryDy=0;" parent="1" source="lmKd-iWOiShviezDQh_1-129" target="lmKd-iWOiShviezDQh_1-99" edge="1">
          <mxGeometry relative="1" as="geometry" />
        </mxCell>
        <mxCell id="lmKd-iWOiShviezDQh_1-129" value="זיכרון שנגיש למתכנתים - מאגר פרמטרים (קובץ פייתון או אפילו טבלת אקסל)" style="rounded=0;whiteSpace=wrap;html=1;" parent="1" vertex="1">
          <mxGeometry x="1512.5" y="-80" width="120" height="60" as="geometry" />
        </mxCell>
        <mxCell id="lmKd-iWOiShviezDQh_1-131" value="" style="endArrow=none;dashed=1;html=1;rounded=0;" parent="1" edge="1">
          <mxGeometry width="50" height="50" relative="1" as="geometry">
            <mxPoint x="1040" y="520" as="sourcePoint" />
            <mxPoint x="1040" y="-130" as="targetPoint" />
          </mxGeometry>
        </mxCell>
        <mxCell id="lmKd-iWOiShviezDQh_1-132" value="" style="endArrow=none;dashed=1;html=1;rounded=0;" parent="1" edge="1">
          <mxGeometry width="50" height="50" relative="1" as="geometry">
            <mxPoint x="2040" y="520" as="sourcePoint" />
            <mxPoint x="2040" y="-140" as="targetPoint" />
          </mxGeometry>
        </mxCell>
        <mxCell id="lmKd-iWOiShviezDQh_1-133" value="" style="endArrow=none;dashed=1;html=1;rounded=0;" parent="1" edge="1">
          <mxGeometry width="50" height="50" relative="1" as="geometry">
            <mxPoint x="2040" y="520" as="sourcePoint" />
            <mxPoint x="1040" y="520" as="targetPoint" />
          </mxGeometry>
        </mxCell>
        <mxCell id="lmKd-iWOiShviezDQh_1-134" value="" style="endArrow=none;dashed=1;html=1;rounded=0;" parent="1" edge="1">
          <mxGeometry width="50" height="50" relative="1" as="geometry">
            <mxPoint x="2040" y="-120" as="sourcePoint" />
            <mxPoint x="1040" y="-120" as="targetPoint" />
          </mxGeometry>
        </mxCell>
        <mxCell id="lmKd-iWOiShviezDQh_1-135" value="&lt;b&gt;prod - ההצעה שלי&lt;/b&gt;" style="text;html=1;align=center;verticalAlign=middle;whiteSpace=wrap;rounded=0;" parent="1" vertex="1">
          <mxGeometry x="1520" y="-110" width="60" height="30" as="geometry" />
        </mxCell>
        <mxCell id="lmKd-iWOiShviezDQh_1-136" value="" style="sketch=0;points=[[0,0,0],[0.25,0,0],[0.5,0,0],[0.75,0,0],[1,0,0],[0,1,0],[0.25,1,0],[0.5,1,0],[0.75,1,0],[1,1,0],[0,0.25,0],[0,0.5,0],[0,0.75,0],[1,0.25,0],[1,0.5,0],[1,0.75,0]];outlineConnect=0;fontColor=#232F3E;fillColor=#7AA116;strokeColor=#ffffff;dashed=0;verticalLabelPosition=bottom;verticalAlign=top;align=center;html=1;fontSize=12;fontStyle=0;aspect=fixed;shape=mxgraph.aws4.resourceIcon;resIcon=mxgraph.aws4.s3;" parent="1" vertex="1">
          <mxGeometry x="1380" y="116.25" width="78" height="78" as="geometry" />
        </mxCell>
        <mxCell id="lmKd-iWOiShviezDQh_1-139" value="יופעל אחרי העלאת 10* קבצים" style="swimlane;startSize=0;" parent="1" vertex="1">
          <mxGeometry x="1540" y="30" width="310" height="200" as="geometry" />
        </mxCell>
        <mxCell id="lmKd-iWOiShviezDQh_1-138" value="" style="outlineConnect=0;dashed=0;verticalLabelPosition=bottom;verticalAlign=top;align=center;html=1;shape=mxgraph.aws3.lambda_function;fillColor=#F58534;gradientColor=none;" parent="lmKd-iWOiShviezDQh_1-139" vertex="1">
          <mxGeometry x="132.5" y="10" width="69" height="72" as="geometry" />
        </mxCell>
        <mxCell id="lmKd-iWOiShviezDQh_1-103" value="running the model" style="whiteSpace=wrap;html=1;verticalAlign=top;" parent="lmKd-iWOiShviezDQh_1-139" vertex="1">
          <mxGeometry x="90" y="90" width="55" height="80" as="geometry" />
        </mxCell>
        <mxCell id="lmKd-iWOiShviezDQh_1-105" value="עיבוד לאחר הפעלת המודל - החזרת התוצרים בפורמט הנכון" style="whiteSpace=wrap;html=1;verticalAlign=top;" parent="lmKd-iWOiShviezDQh_1-139" vertex="1">
          <mxGeometry x="170" y="90" width="82.5" height="80" as="geometry" />
        </mxCell>
        <mxCell id="lmKd-iWOiShviezDQh_1-102" value="" style="edgeStyle=orthogonalEdgeStyle;rounded=0;orthogonalLoop=1;jettySize=auto;html=1;" parent="lmKd-iWOiShviezDQh_1-139" source="lmKd-iWOiShviezDQh_1-103" target="lmKd-iWOiShviezDQh_1-105" edge="1">
          <mxGeometry relative="1" as="geometry">
            <Array as="points">
              <mxPoint x="130" y="100" />
              <mxPoint x="130" y="100" />
            </Array>
          </mxGeometry>
        </mxCell>
        <mxCell id="GHBOQwMrfNiSCfcFLLPO-2" value="" style="edgeStyle=orthogonalEdgeStyle;rounded=0;orthogonalLoop=1;jettySize=auto;html=1;entryX=0;entryY=0.5;entryDx=0;entryDy=0;" parent="lmKd-iWOiShviezDQh_1-139" source="GHBOQwMrfNiSCfcFLLPO-1" target="lmKd-iWOiShviezDQh_1-103" edge="1">
          <mxGeometry relative="1" as="geometry" />
        </mxCell>
        <mxCell id="GHBOQwMrfNiSCfcFLLPO-1" value="lambada - activate lambada by the ofset file" style="whiteSpace=wrap;html=1;verticalAlign=top;" parent="lmKd-iWOiShviezDQh_1-139" vertex="1">
          <mxGeometry x="10" y="90" width="55" height="80" as="geometry" />
        </mxCell>
        <mxCell id="GHBOQwMrfNiSCfcFLLPO-3" value="" style="outlineConnect=0;dashed=0;verticalLabelPosition=bottom;verticalAlign=top;align=center;html=1;shape=mxgraph.aws3.lambda_function;fillColor=#F58534;gradientColor=none;" parent="lmKd-iWOiShviezDQh_1-139" vertex="1">
          <mxGeometry x="23" y="60" width="29" height="22" as="geometry" />
        </mxCell>
        <mxCell id="lmKd-iWOiShviezDQh_1-140" value="" style="endArrow=classic;html=1;rounded=0;exitX=0.188;exitY=1.007;exitDx=0;exitDy=0;exitPerimeter=0;entryX=1;entryY=0;entryDx=0;entryDy=0;entryPerimeter=0;" parent="1" source="lmKd-iWOiShviezDQh_1-139" target="lmKd-iWOiShviezDQh_1-117" edge="1">
          <mxGeometry width="50" height="50" relative="1" as="geometry">
            <mxPoint x="1450" y="210" as="sourcePoint" />
            <mxPoint x="1490" y="410" as="targetPoint" />
            <Array as="points" />
          </mxGeometry>
        </mxCell>
        <mxCell id="lmKd-iWOiShviezDQh_1-141" value="" style="sketch=0;points=[[0,0,0],[0.25,0,0],[0.5,0,0],[0.75,0,0],[1,0,0],[0,1,0],[0.25,1,0],[0.5,1,0],[0.75,1,0],[1,1,0],[0,0.25,0],[0,0.5,0],[0,0.75,0],[1,0.25,0],[1,0.5,0],[1,0.75,0]];outlineConnect=0;fontColor=#232F3E;fillColor=#7AA116;strokeColor=#ffffff;dashed=0;verticalLabelPosition=bottom;verticalAlign=top;align=center;html=1;fontSize=12;fontStyle=0;aspect=fixed;shape=mxgraph.aws4.resourceIcon;resIcon=mxgraph.aws4.s3;" parent="1" vertex="1">
          <mxGeometry x="1860" y="125.75" width="78" height="78" as="geometry" />
        </mxCell>
        <mxCell id="lmKd-iWOiShviezDQh_1-148" value="marge" style="outlineConnect=0;dashed=0;verticalLabelPosition=bottom;verticalAlign=top;align=center;html=1;shape=mxgraph.aws3.lambda_function;fillColor=#F58534;gradientColor=none;" parent="1" vertex="1">
          <mxGeometry x="1880" y="250" width="38" height="42" as="geometry" />
        </mxCell>
        <mxCell id="lmKd-iWOiShviezDQh_1-150" style="edgeStyle=orthogonalEdgeStyle;rounded=0;orthogonalLoop=1;jettySize=auto;html=1;entryX=0.5;entryY=0;entryDx=0;entryDy=0;entryPerimeter=0;" parent="1" source="lmKd-iWOiShviezDQh_1-141" target="lmKd-iWOiShviezDQh_1-148" edge="1">
          <mxGeometry relative="1" as="geometry" />
        </mxCell>
        <mxCell id="lmKd-iWOiShviezDQh_1-151" style="edgeStyle=orthogonalEdgeStyle;rounded=0;orthogonalLoop=1;jettySize=auto;html=1;entryX=1;entryY=0.75;entryDx=0;entryDy=0;entryPerimeter=0;" parent="1" source="lmKd-iWOiShviezDQh_1-148" target="lmKd-iWOiShviezDQh_1-141" edge="1">
          <mxGeometry relative="1" as="geometry">
            <Array as="points">
              <mxPoint x="1958" y="270" />
              <mxPoint x="1958" y="184" />
            </Array>
          </mxGeometry>
        </mxCell>
        <mxCell id="lmKd-iWOiShviezDQh_1-152" value="Logs and monitoring" style="text;html=1;align=center;verticalAlign=middle;whiteSpace=wrap;rounded=0;rotation=0;" parent="1" vertex="1">
          <mxGeometry x="1700" y="290" width="106.5" height="20" as="geometry" />
        </mxCell>
        <mxCell id="lmKd-iWOiShviezDQh_1-153" value="parameters" style="edgeStyle=orthogonalEdgeStyle;rounded=0;orthogonalLoop=1;jettySize=auto;html=1;exitX=1;exitY=0.25;exitDx=0;exitDy=0;exitPerimeter=0;entryX=0.001;entryY=0.535;entryDx=0;entryDy=0;entryPerimeter=0;" parent="1" source="lmKd-iWOiShviezDQh_1-136" target="lmKd-iWOiShviezDQh_1-139" edge="1">
          <mxGeometry relative="1" as="geometry" />
        </mxCell>
        <mxCell id="lmKd-iWOiShviezDQh_1-154" value="פעם ביום העלאה לבאקט" style="edgeStyle=orthogonalEdgeStyle;rounded=0;orthogonalLoop=1;jettySize=auto;html=1;entryX=0.5;entryY=0;entryDx=0;entryDy=0;entryPerimeter=0;" parent="1" source="lmKd-iWOiShviezDQh_1-129" target="lmKd-iWOiShviezDQh_1-136" edge="1">
          <mxGeometry relative="1" as="geometry" />
        </mxCell>
        <mxCell id="lmKd-iWOiShviezDQh_1-155" value="" style="edgeStyle=orthogonalEdgeStyle;rounded=0;orthogonalLoop=1;jettySize=auto;html=1;" parent="1" source="lmKd-iWOiShviezDQh_1-156" target="lmKd-iWOiShviezDQh_1-158" edge="1">
          <mxGeometry relative="1" as="geometry" />
        </mxCell>
        <mxCell id="lmKd-iWOiShviezDQh_1-156" value="מקור תצ&quot;אות" style="shape=umlActor;verticalLabelPosition=bottom;verticalAlign=top;html=1;outlineConnect=0;" parent="1" vertex="1">
          <mxGeometry x="1050" y="826.25" width="30" height="60" as="geometry" />
        </mxCell>
        <mxCell id="lmKd-iWOiShviezDQh_1-157" value="" style="edgeStyle=orthogonalEdgeStyle;rounded=0;orthogonalLoop=1;jettySize=auto;html=1;" parent="1" source="lmKd-iWOiShviezDQh_1-158" target="lmKd-iWOiShviezDQh_1-160" edge="1">
          <mxGeometry relative="1" as="geometry" />
        </mxCell>
        <mxCell id="lmKd-iWOiShviezDQh_1-158" value="זיכרון לוקלי" style="whiteSpace=wrap;html=1;verticalAlign=top;" parent="1" vertex="1">
          <mxGeometry x="1100" y="825.75" width="120" height="60" as="geometry" />
        </mxCell>
        <mxCell id="lmKd-iWOiShviezDQh_1-159" value="" style="edgeStyle=orthogonalEdgeStyle;rounded=0;orthogonalLoop=1;jettySize=auto;html=1;entryX=0;entryY=0.5;entryDx=0;entryDy=0;entryPerimeter=0;" parent="1" source="lmKd-iWOiShviezDQh_1-160" target="lmKd-iWOiShviezDQh_1-188" edge="1">
          <mxGeometry relative="1" as="geometry">
            <mxPoint x="1444" y="860" as="targetPoint" />
          </mxGeometry>
        </mxCell>
        <mxCell id="lmKd-iWOiShviezDQh_1-160" value="לוקלי - עיבוד מקדים: המרת תמונות + חיתוך לגודל קבוע" style="whiteSpace=wrap;html=1;verticalAlign=top;" parent="1" vertex="1">
          <mxGeometry x="1260" y="812" width="70" height="87.5" as="geometry" />
        </mxCell>
        <mxCell id="lmKd-iWOiShviezDQh_1-161" value="images" style="edgeStyle=orthogonalEdgeStyle;rounded=0;orthogonalLoop=1;jettySize=auto;html=1;exitX=1;exitY=0.5;exitDx=0;exitDy=0;exitPerimeter=0;" parent="1" source="lmKd-iWOiShviezDQh_1-188" target="lmKd-iWOiShviezDQh_1-163" edge="1">
          <mxGeometry relative="1" as="geometry">
            <mxPoint x="1494" y="860" as="sourcePoint" />
            <Array as="points">
              <mxPoint x="1529" y="857" />
              <mxPoint x="1529" y="860" />
            </Array>
          </mxGeometry>
        </mxCell>
        <mxCell id="lmKd-iWOiShviezDQh_1-162" value="" style="edgeStyle=orthogonalEdgeStyle;rounded=0;orthogonalLoop=1;jettySize=auto;html=1;" parent="1" source="lmKd-iWOiShviezDQh_1-163" target="lmKd-iWOiShviezDQh_1-165" edge="1">
          <mxGeometry relative="1" as="geometry">
            <Array as="points">
              <mxPoint x="1670" y="830" />
              <mxPoint x="1670" y="830" />
            </Array>
          </mxGeometry>
        </mxCell>
        <mxCell id="lmKd-iWOiShviezDQh_1-163" value="running the model" style="whiteSpace=wrap;html=1;verticalAlign=top;" parent="1" vertex="1">
          <mxGeometry x="1565" y="820" width="55" height="80" as="geometry" />
        </mxCell>
        <mxCell id="lmKd-iWOiShviezDQh_1-164" value="" style="edgeStyle=orthogonalEdgeStyle;rounded=0;orthogonalLoop=1;jettySize=auto;html=1;" parent="1" source="lmKd-iWOiShviezDQh_1-165" edge="1">
          <mxGeometry relative="1" as="geometry">
            <mxPoint x="1851.25" y="860" as="targetPoint" />
          </mxGeometry>
        </mxCell>
        <mxCell id="lmKd-iWOiShviezDQh_1-165" value="עיבוד לאחר הפעלת המודל - החזרת התוצרים בפורמט הנכון" style="whiteSpace=wrap;html=1;verticalAlign=top;" parent="1" vertex="1">
          <mxGeometry x="1670" y="816.25" width="82.5" height="80" as="geometry" />
        </mxCell>
        <mxCell id="lmKd-iWOiShviezDQh_1-168" style="edgeStyle=orthogonalEdgeStyle;rounded=0;orthogonalLoop=1;jettySize=auto;html=1;entryX=0.5;entryY=0.5;entryDx=0;entryDy=0;entryPerimeter=0;" parent="1" edge="1">
          <mxGeometry relative="1" as="geometry">
            <mxPoint x="1957.5" y="860" as="sourcePoint" />
            <mxPoint x="2016.25" y="860" as="targetPoint" />
          </mxGeometry>
        </mxCell>
        <mxCell id="lmKd-iWOiShviezDQh_1-169" value="&lt;span style=&quot;background-color: transparent; color: light-dark(rgb(0, 0, 0), rgb(255, 255, 255));&quot;&gt;&amp;nbsp;&lt;/span&gt;&lt;span style=&quot;background-color: transparent; color: light-dark(rgb(0, 0, 0), rgb(255, 255, 255));&quot;&gt;postgresql&lt;/span&gt;" style="strokeWidth=2;html=1;shape=mxgraph.flowchart.database;whiteSpace=wrap;" parent="1" vertex="1">
          <mxGeometry x="1751.25" y="1080" width="115" height="120" as="geometry" />
        </mxCell>
        <mxCell id="lmKd-iWOiShviezDQh_1-170" value="" style="endArrow=classic;html=1;rounded=0;exitX=0.813;exitY=1.015;exitDx=0;exitDy=0;exitPerimeter=0;" parent="1" source="lmKd-iWOiShviezDQh_1-189" target="lmKd-iWOiShviezDQh_1-169" edge="1">
          <mxGeometry width="50" height="50" relative="1" as="geometry">
            <mxPoint x="1781.25" y="910" as="sourcePoint" />
            <mxPoint x="1631.25" y="1040" as="targetPoint" />
          </mxGeometry>
        </mxCell>
        <mxCell id="lmKd-iWOiShviezDQh_1-171" value="Logs and monitoring" style="text;html=1;align=center;verticalAlign=middle;whiteSpace=wrap;rounded=0;rotation=-45;" parent="1" vertex="1">
          <mxGeometry x="1473.5" y="960" width="106.5" height="20" as="geometry" />
        </mxCell>
        <mxCell id="lmKd-iWOiShviezDQh_1-172" style="edgeStyle=orthogonalEdgeStyle;rounded=0;orthogonalLoop=1;jettySize=auto;html=1;" parent="1" source="lmKd-iWOiShviezDQh_1-174" target="lmKd-iWOiShviezDQh_1-175" edge="1">
          <mxGeometry relative="1" as="geometry" />
        </mxCell>
        <mxCell id="lmKd-iWOiShviezDQh_1-174" value="" style="sketch=0;points=[[0,0,0],[0.25,0,0],[0.5,0,0],[0.75,0,0],[1,0,0],[0,1,0],[0.25,1,0],[0.5,1,0],[0.75,1,0],[1,1,0],[0,0.25,0],[0,0.5,0],[0,0.75,0],[1,0.25,0],[1,0.5,0],[1,0.75,0]];points=[[0,0,0],[0.25,0,0],[0.5,0,0],[0.75,0,0],[1,0,0],[0,1,0],[0.25,1,0],[0.5,1,0],[0.75,1,0],[1,1,0],[0,0.25,0],[0,0.5,0],[0,0.75,0],[1,0.25,0],[1,0.5,0],[1,0.75,0]];outlineConnect=0;fontColor=#232F3E;fillColor=#E7157B;strokeColor=#ffffff;dashed=0;verticalLabelPosition=bottom;verticalAlign=top;align=center;html=1;fontSize=12;fontStyle=0;aspect=fixed;shape=mxgraph.aws4.resourceIcon;resIcon=mxgraph.aws4.cloudwatch_2;" parent="1" vertex="1">
          <mxGeometry x="1442" y="1020" width="78" height="78" as="geometry" />
        </mxCell>
        <mxCell id="lmKd-iWOiShviezDQh_1-175" value="" style="sketch=0;outlineConnect=0;fontColor=#232F3E;gradientColor=none;fillColor=#8C4FFF;strokeColor=none;dashed=0;verticalLabelPosition=bottom;verticalAlign=top;align=center;html=1;fontSize=12;fontStyle=0;aspect=fixed;pointerEvents=1;shape=mxgraph.aws4.opensearch_dashboards;" parent="1" vertex="1">
          <mxGeometry x="1272" y="1029.5" width="78" height="59" as="geometry" />
        </mxCell>
        <mxCell id="lmKd-iWOiShviezDQh_1-179" value="&amp;nbsp;" style="edgeStyle=orthogonalEdgeStyle;rounded=0;orthogonalLoop=1;jettySize=auto;html=1;entryX=0.5;entryY=0;entryDx=0;entryDy=0;entryPerimeter=0;" parent="1" target="lmKd-iWOiShviezDQh_1-156" edge="1">
          <mxGeometry relative="1" as="geometry">
            <Array as="points">
              <mxPoint x="1075" y="720" />
            </Array>
            <mxPoint x="1883" y="720" as="sourcePoint" />
          </mxGeometry>
        </mxCell>
        <mxCell id="lmKd-iWOiShviezDQh_1-180" value="דו&quot;ח תוצאות במייל" style="edgeStyle=orthogonalEdgeStyle;rounded=0;orthogonalLoop=1;jettySize=auto;html=1;entryX=0.5;entryY=0;entryDx=0;entryDy=0;entryPerimeter=0;" parent="1" edge="1">
          <mxGeometry relative="1" as="geometry">
            <mxPoint x="1860" y="720" as="sourcePoint" />
            <mxPoint x="2016.25" y="830" as="targetPoint" />
          </mxGeometry>
        </mxCell>
        <mxCell id="lmKd-iWOiShviezDQh_1-181" style="edgeStyle=orthogonalEdgeStyle;rounded=0;orthogonalLoop=1;jettySize=auto;html=1;entryX=0.5;entryY=0;entryDx=0;entryDy=0;" parent="1" source="lmKd-iWOiShviezDQh_1-182" target="lmKd-iWOiShviezDQh_1-160" edge="1">
          <mxGeometry relative="1" as="geometry" />
        </mxCell>
        <mxCell id="lmKd-iWOiShviezDQh_1-182" value="זיכרון שנגיש למתכנתים - מאגר פרמטרים (קובץ פייתון או אפילו טבלת אקסל)" style="rounded=0;whiteSpace=wrap;html=1;" parent="1" vertex="1">
          <mxGeometry x="1512.5" y="620" width="120" height="60" as="geometry" />
        </mxCell>
        <mxCell id="lmKd-iWOiShviezDQh_1-183" value="" style="endArrow=none;dashed=1;html=1;rounded=0;" parent="1" edge="1">
          <mxGeometry width="50" height="50" relative="1" as="geometry">
            <mxPoint x="1040" y="1220" as="sourcePoint" />
            <mxPoint x="1040" y="570" as="targetPoint" />
          </mxGeometry>
        </mxCell>
        <mxCell id="lmKd-iWOiShviezDQh_1-184" value="" style="endArrow=none;dashed=1;html=1;rounded=0;" parent="1" edge="1">
          <mxGeometry width="50" height="50" relative="1" as="geometry">
            <mxPoint x="2110" y="1230" as="sourcePoint" />
            <mxPoint x="2110" y="570" as="targetPoint" />
          </mxGeometry>
        </mxCell>
        <mxCell id="lmKd-iWOiShviezDQh_1-185" value="" style="endArrow=none;dashed=1;html=1;rounded=0;" parent="1" edge="1">
          <mxGeometry width="50" height="50" relative="1" as="geometry">
            <mxPoint x="2040" y="1220" as="sourcePoint" />
            <mxPoint x="1040" y="1220" as="targetPoint" />
          </mxGeometry>
        </mxCell>
        <mxCell id="lmKd-iWOiShviezDQh_1-186" value="" style="endArrow=none;dashed=1;html=1;rounded=0;" parent="1" edge="1">
          <mxGeometry width="50" height="50" relative="1" as="geometry">
            <mxPoint x="2040" y="580" as="sourcePoint" />
            <mxPoint x="1040" y="580" as="targetPoint" />
          </mxGeometry>
        </mxCell>
        <mxCell id="lmKd-iWOiShviezDQh_1-187" value="&lt;b&gt;וולידציה&lt;/b&gt;" style="text;html=1;align=center;verticalAlign=middle;whiteSpace=wrap;rounded=0;" parent="1" vertex="1">
          <mxGeometry x="1520" y="590" width="60" height="30" as="geometry" />
        </mxCell>
        <mxCell id="lmKd-iWOiShviezDQh_1-188" value="" style="sketch=0;points=[[0,0,0],[0.25,0,0],[0.5,0,0],[0.75,0,0],[1,0,0],[0,1,0],[0.25,1,0],[0.5,1,0],[0.75,1,0],[1,1,0],[0,0.25,0],[0,0.5,0],[0,0.75,0],[1,0.25,0],[1,0.5,0],[1,0.75,0]];outlineConnect=0;fontColor=#232F3E;fillColor=#7AA116;strokeColor=#ffffff;dashed=0;verticalLabelPosition=bottom;verticalAlign=top;align=center;html=1;fontSize=12;fontStyle=0;aspect=fixed;shape=mxgraph.aws4.resourceIcon;resIcon=mxgraph.aws4.s3;" parent="1" vertex="1">
          <mxGeometry x="1380" y="816.25" width="78" height="78" as="geometry" />
        </mxCell>
        <mxCell id="lmKd-iWOiShviezDQh_1-189" value="יופעל אחרי העלאת 10* קבצים" style="swimlane;startSize=0;" parent="1" vertex="1">
          <mxGeometry x="1540" y="730" width="310" height="200" as="geometry" />
        </mxCell>
        <mxCell id="lmKd-iWOiShviezDQh_1-190" value="" style="outlineConnect=0;dashed=0;verticalLabelPosition=bottom;verticalAlign=top;align=center;html=1;shape=mxgraph.aws3.lambda_function;fillColor=#F58534;gradientColor=none;" parent="lmKd-iWOiShviezDQh_1-189" vertex="1">
          <mxGeometry x="132.5" y="10" width="69" height="72" as="geometry" />
        </mxCell>
        <mxCell id="lmKd-iWOiShviezDQh_1-191" value="" style="endArrow=classic;html=1;rounded=0;exitX=0.188;exitY=1.007;exitDx=0;exitDy=0;exitPerimeter=0;entryX=1;entryY=0;entryDx=0;entryDy=0;entryPerimeter=0;" parent="1" source="lmKd-iWOiShviezDQh_1-189" target="lmKd-iWOiShviezDQh_1-174" edge="1">
          <mxGeometry width="50" height="50" relative="1" as="geometry">
            <mxPoint x="1450" y="910" as="sourcePoint" />
            <mxPoint x="1490" y="1110" as="targetPoint" />
            <Array as="points" />
          </mxGeometry>
        </mxCell>
        <mxCell id="lmKd-iWOiShviezDQh_1-192" value="" style="sketch=0;points=[[0,0,0],[0.25,0,0],[0.5,0,0],[0.75,0,0],[1,0,0],[0,1,0],[0.25,1,0],[0.5,1,0],[0.75,1,0],[1,1,0],[0,0.25,0],[0,0.5,0],[0,0.75,0],[1,0.25,0],[1,0.5,0],[1,0.75,0]];outlineConnect=0;fontColor=#232F3E;fillColor=#7AA116;strokeColor=#ffffff;dashed=0;verticalLabelPosition=bottom;verticalAlign=top;align=center;html=1;fontSize=12;fontStyle=0;aspect=fixed;shape=mxgraph.aws4.resourceIcon;resIcon=mxgraph.aws4.s3;" parent="1" vertex="1">
          <mxGeometry x="1860" y="825.75" width="78" height="78" as="geometry" />
        </mxCell>
        <mxCell id="lmKd-iWOiShviezDQh_1-193" value="marge" style="outlineConnect=0;dashed=0;verticalLabelPosition=bottom;verticalAlign=top;align=center;html=1;shape=mxgraph.aws3.lambda_function;fillColor=#F58534;gradientColor=none;" parent="1" vertex="1">
          <mxGeometry x="1880" y="950" width="38" height="42" as="geometry" />
        </mxCell>
        <mxCell id="lmKd-iWOiShviezDQh_1-194" style="edgeStyle=orthogonalEdgeStyle;rounded=0;orthogonalLoop=1;jettySize=auto;html=1;entryX=0.5;entryY=0;entryDx=0;entryDy=0;entryPerimeter=0;" parent="1" source="lmKd-iWOiShviezDQh_1-192" target="lmKd-iWOiShviezDQh_1-193" edge="1">
          <mxGeometry relative="1" as="geometry" />
        </mxCell>
        <mxCell id="lmKd-iWOiShviezDQh_1-195" style="edgeStyle=orthogonalEdgeStyle;rounded=0;orthogonalLoop=1;jettySize=auto;html=1;entryX=1;entryY=0.75;entryDx=0;entryDy=0;entryPerimeter=0;" parent="1" source="lmKd-iWOiShviezDQh_1-193" target="lmKd-iWOiShviezDQh_1-192" edge="1">
          <mxGeometry relative="1" as="geometry">
            <Array as="points">
              <mxPoint x="1958" y="970" />
              <mxPoint x="1958" y="884" />
            </Array>
          </mxGeometry>
        </mxCell>
        <mxCell id="lmKd-iWOiShviezDQh_1-196" value="Logs and monitoring" style="text;html=1;align=center;verticalAlign=middle;whiteSpace=wrap;rounded=0;rotation=0;" parent="1" vertex="1">
          <mxGeometry x="1700" y="990" width="106.5" height="20" as="geometry" />
        </mxCell>
        <mxCell id="lmKd-iWOiShviezDQh_1-197" value="parameters" style="edgeStyle=orthogonalEdgeStyle;rounded=0;orthogonalLoop=1;jettySize=auto;html=1;exitX=1;exitY=0.25;exitDx=0;exitDy=0;exitPerimeter=0;entryX=0.001;entryY=0.535;entryDx=0;entryDy=0;entryPerimeter=0;" parent="1" source="lmKd-iWOiShviezDQh_1-188" target="lmKd-iWOiShviezDQh_1-189" edge="1">
          <mxGeometry relative="1" as="geometry" />
        </mxCell>
        <mxCell id="lmKd-iWOiShviezDQh_1-198" style="edgeStyle=orthogonalEdgeStyle;rounded=0;orthogonalLoop=1;jettySize=auto;html=1;entryX=0.5;entryY=0;entryDx=0;entryDy=0;entryPerimeter=0;" parent="1" source="lmKd-iWOiShviezDQh_1-182" target="lmKd-iWOiShviezDQh_1-188" edge="1">
          <mxGeometry relative="1" as="geometry" />
        </mxCell>
        <mxCell id="lmKd-iWOiShviezDQh_1-199" value="השוואת תצר המודל&lt;div&gt;לתיוג הידני וקבלת ציון&lt;/div&gt;" style="outlineConnect=0;dashed=0;verticalLabelPosition=bottom;verticalAlign=top;align=center;html=1;shape=mxgraph.aws3.lambda_function;fillColor=#F58534;gradientColor=none;" parent="1" vertex="1">
          <mxGeometry x="2020" y="824" width="69" height="72" as="geometry" />
        </mxCell>
      </root>
    </mxGraphModel>
  </diagram>
</mxfile>
